mtllib materials.mtl
v -0.01041427 -0.2230065 0.1456618
v -0.03041425 -0.2230065 0.1456618
v -0.03041437 0.2369934 0.1456618
v -0.01041427 0.2369934 0.1456619
v -0.01041427 -0.2230065 -0.1443382
v -0.01041427 0.2369934 -0.1443382
v -0.03041437 0.2369934 -0.1443382
v -0.03041425 -0.2230065 -0.1443382
v -0.0004142821 0.2139933 0.131162
v -0.0004142821 -0.2000065 0.1311617
v -0.0004142821 0.2139933 -0.1298382
v -0.0004142821 -0.2000065 -0.1298382
v 0.00284192 0.1459683 0.006074369
v 0.002802074 0.1421171 0.01281637
v -0.007197648 0.14219 0.01279891
v -0.007157773 0.146041 0.006056845
v 0.002746403 0.1354109 0.01672953
v -0.007253319 0.1354837 0.01671207
v 0.002689779 0.1276467 0.01676524
v -0.007309943 0.1277195 0.01674771
v 0.0026474 0.1209047 0.01291388
v -0.007352263 0.1209775 0.01289636
v 0.002630681 0.1169915 0.006207466
v -0.007369071 0.1170644 0.006190002
v 0.002644002 0.1169558 -0.001556993
v -0.00735572 0.1170286 -0.001574516
v 0.002683848 0.1208069 -0.008299053
v -0.007315904 0.1208798 -0.008316576
v 0.002739519 0.1275132 -0.01221222
v -0.007260174 0.127586 -0.01222968
v 0.002796143 0.1352774 -0.01224786
v -0.007203609 0.1353502 -0.01226538
v 0.002838492 0.1420194 -0.008396506
v -0.00716123 0.1420922 -0.00841403
v 0.002855241 0.1459326 -0.001690149
v -0.007144481 0.1460053 -0.001707613
v 0.003228724 -0.1140327 0.004792452
v 0.003200263 -0.117903 0.01152354
v -0.006797403 -0.1176991 0.01159859
v -0.006768912 -0.1138287 0.004867435
v 0.003092438 -0.1246195 0.01541787
v -0.006905228 -0.1244156 0.01549292
v 0.002934128 -0.1323825 0.01543194
v -0.007063478 -0.1321785 0.01550692
v 0.002767771 -0.1391119 0.01156193
v -0.007229835 -0.1389078 0.01163691
v 0.002638012 -0.1430045 0.004844844
v -0.007359654 -0.1428005 0.004919827
v 0.00257948 -0.1430174 -0.002919495
v -0.007418185 -0.1428133 -0.002844512
v 0.002607942 -0.139147 -0.009650648
v -0.007389694 -0.138943 -0.009575605
v 0.002715766 -0.1324305 -0.01354498
v -0.00728187 -0.1322265 -0.01346999
v 0.002874047 -0.1246675 -0.01355898
v -0.00712356 -0.1244636 -0.013484
v 0.003040403 -0.1179382 -0.009688973
v -0.006957263 -0.1177342 -0.009613991
v 0.003170222 -0.1140455 -0.002971947
v -0.006827444 -0.1138416 -0.002896905
v -0.0003544092 -0.0530917 0.01984876
v -0.0003544092 0.06150985 0.01984876
v 0.01397076 0.06150985 0.01984876
v 0.01397076 0.05455506 0.01984876
v 0.01397076 -0.04561365 0.01984876
v 0.01397076 -0.0530917 0.01984876
v -0.0003544092 -0.0530917 -0.02312678
v 0.01397076 -0.0530917 -0.02312678
v 0.01397076 -0.0455091 -0.02312678
v 0.01397076 0.05438137 -0.02312678
v 0.01397076 0.06150985 -0.02312678
v -0.0003544092 0.06150985 -0.02312678
v 0.01397076 -0.04559916 0.01391435
v 0.01397076 -0.04552442 -0.01683068
v 0.01397076 0.05453682 0.01532406
v 0.01397076 0.05440664 -0.01689368
v 0.04659155 -0.06392896 0.01364052
v -0.02623597 0.003226757 0.01081771
v 0.00203079 0.03554666 0.01263767
v 0.04807127 -0.0641017 -0.01531148
v 0.003510535 0.03537405 -0.01631421
v -0.02475628 0.003054142 -0.01813424
v 0.05067128 -0.04341847 0.01273113
v 0.05215105 -0.0435912 -0.01622075
vn -1.192093E-07 8.001422E-11 1
vn 1.192093E-07 -8.001422E-11 -1
vn 1.748319E-07 -1 8.001422E-11
vn -1.748319E-07 1 -8.001422E-11
vn 0.8232122 -1.081295E-07 0.5677341
vn -1 -1.748319E-07 -1.192093E-07
vn 0.9170715 0.398723 1.130324E-07
vn 0.8232151 8.45763E-11 -0.5677298
vn 0.917071 -0.3987241 -4.588899E-08
vn 1 1.748319E-07 1.192093E-07
vn 0.005452161 0.8682963 0.4960161
vn 0.002159639 0.5039696 0.8637187
vn -0.001715139 0.004607367 0.999988
vn -0.005132625 -0.4959894 0.8683136
vn -0.007176197 -0.8636889 0.5039746
vn -0.00729531 -0.999963 0.004594571
vn -0.005458954 -0.8682963 -0.496016
vn -0.002158235 -0.5039696 -0.8637187
vn 0.001717155 -0.004607367 -0.9999881
vn 0.005129976 0.4959893 -0.8683136
vn 0.007166862 0.863689 -0.5039747
vn 0.00728522 0.999963 -0.004594748
vn 0.9999721 -0.007282406 0.001749426
vn -0.9999721 0.007282406 -0.001749426
vn 0.02141913 0.8666712 0.49842
vn 0.01671993 0.501327 0.8650964
vn 0.007537081 0.001655419 0.9999703
vn -0.003667577 -0.4984596 0.8669053
vn -0.01389092 -0.8650156 0.5015531
vn -0.02039061 -0.9997906 0.00180867
vn -0.02142592 -0.8666711 -0.4984199
vn -0.01671853 -0.501327 -0.8650964
vn -0.007535066 -0.001655445 -0.9999704
vn 0.003664928 0.4984596 -0.8669053
vn 0.01388159 0.8650158 -0.5015531
vn 0.02038052 0.9997908 -0.001808754
vn 0.999764 -0.02039871 -0.007501006
vn -0.999764 0.02039871 0.007501006
vn 0 0 1
vn 0 0 -1
vn -1 0 0
vn 0 -1 0
vn 0 1 0
vn 1 0 0
vn 1 0 0
vn 1 0 0
vn 0.08062863 -0.996736 0.00402594
vn 1 0 0
vn -0.04655274 0.0006298919 0.9989157
vn -0.05190567 0.9986491 0.002429663
vn 0.141247 0.01393538 -0.9898763
vn 0.9999838 -0.002187226 -0.005250865
vn -0.05013384 -0.01238981 0.9986659
vn 0.05013392 0.01239116 -0.9986658
vn -0.6769581 -0.7354012 -0.03021125
vn 0.8507195 0.5240687 0.04035487
vn 0.9799299 -0.1926463 0.05123507
vn -0.750872 0.6590917 -0.04230648
vn 0.05285314 0.03373744 0.9980323
vn -0.05284611 -0.03373289 -0.9980329
usemtl mat21
f 4//1 3//1 2//1 1//1
f 8//2 7//2 6//2 5//2
f 2//3 8//3 5//3 1//3
f 6//4 7//4 3//4 4//4
f 10//5 9//5 4//5 1//5
f 3//6 7//6 8//6 2//6
f 9//7 11//7 6//7 4//7
f 11//8 12//8 5//8 6//8
f 12//9 10//9 1//9 5//9
f 12//10 11//10 9//10 10//10
f 79//53 78//53 77//53
f 82//54 81//54 80//54
f 78//55 82//55 80//55 77//55
f 84//56 81//56 79//56 83//56
f 80//57 84//57 83//57 77//57
f 79//58 81//58 82//58 78//58
f 77//59 83//59 79//59
f 81//60 84//60 80//60
usemtl mat15
f 16//11 15//11 14//11 13//11
f 15//12 18//12 17//12 14//12
f 18//13 20//13 19//13 17//13
f 20//14 22//14 21//14 19//14
f 22//15 24//15 23//15 21//15
f 24//16 26//16 25//16 23//16
f 26//17 28//17 27//17 25//17
f 28//18 30//18 29//18 27//18
f 30//19 32//19 31//19 29//19
f 32//20 34//20 33//20 31//20
f 34//21 36//21 35//21 33//21
f 36//22 16//22 13//22 35//22
f 13//23 14//23 17//23 19//23 21//23 23//23 25//23 27//23 29//23 31//23 33//23 35//23
f 36//24 34//24 32//24 30//24 28//24 26//24 24//24 22//24 20//24 18//24 15//24 16//24
f 40//25 39//25 38//25 37//25
f 39//26 42//26 41//26 38//26
f 42//27 44//27 43//27 41//27
f 44//28 46//28 45//28 43//28
f 46//29 48//29 47//29 45//29
f 48//30 50//30 49//30 47//30
f 50//31 52//31 51//31 49//31
f 52//32 54//32 53//32 51//32
f 54//33 56//33 55//33 53//33
f 56//34 58//34 57//34 55//34
f 58//35 60//35 59//35 57//35
f 60//36 40//36 37//36 59//36
f 37//37 38//37 41//37 43//37 45//37 47//37 49//37 51//37 53//37 55//37 57//37 59//37
f 60//38 58//38 56//38 54//38 52//38 50//38 48//38 46//38 44//38 42//38 39//38 40//38
f 66//39 65//39 64//39 63//39 62//39 61//39
f 72//40 71//40 70//40 69//40 68//40 67//40
f 62//41 72//41 67//41 61//41
f 67//42 68//42 66//42 61//42
f 63//43 71//43 72//43 62//43
f 68//44 69//44 74//44 73//44 65//44 66//44
f 73//45 75//45 64//45 65//45
f 75//46 76//46 70//46 71//46 63//46 64//46
f 62//47 72//47 76//47 75//47
f 74//48 69//48 70//48 76//48
f 72//49 67//49 74//49 76//49
f 67//50 61//50 73//50 74//50
f 61//51 62//51 75//51 73//51
f 61//52 67//52 72//52 62//52
