# Blender v2.78 (sub 0) OBJ File: '10.blend'
# www.blender.org
mtllib Table_tennis_paddle_01.mtl
g Table_Tennis_Paddle_Cube.033
v -0.206773 0.107141 0.161355
v -0.164769 1.205144 0.146426
v -0.206773 0.107141 -0.161355
v -0.164769 1.205144 -0.146426
v 0.206773 0.107141 0.161355
v 0.164769 1.205144 0.146426
v 0.206773 0.107141 -0.161355
v 0.164769 1.205144 -0.146426
v 0.000000 0.107141 -0.183817
v 0.000000 1.205144 -0.166809
v 0.000000 0.107141 0.183817
v 0.000000 1.205144 0.166809
v -0.342250 1.419697 0.086795
v -0.342250 1.419697 -0.086795
v 0.000000 1.419697 -0.098877
v 0.342250 1.419697 -0.086795
v 0.342250 1.419697 0.086795
v 0.000000 1.419697 0.098877
v -1.012974 1.920787 0.073049
v -1.012974 1.920787 -0.073049
v 0.000000 1.639896 -0.083218
v 1.012974 1.920787 -0.073049
v 1.012974 1.920787 0.073049
v 0.000000 1.639896 0.083218
v -1.012974 2.405474 0.073049
v -1.012974 2.405474 -0.073049
v 0.000000 2.405474 -0.083218
v 1.012974 2.405474 -0.073049
v 1.012974 2.405474 0.073049
v 0.000000 2.405474 0.083218
v -0.887039 3.034488 0.073049
v -0.887039 3.034488 -0.073049
v 0.000000 3.034488 -0.083218
v 0.887039 3.034488 -0.073049
v 0.887039 3.034488 0.073049
v 0.000000 3.034488 0.083218
v -0.528024 3.536992 0.073049
v -0.528024 3.536992 -0.073049
v 0.000000 3.717668 -0.083218
v 0.528024 3.536992 -0.073049
v 0.528024 3.536992 0.073049
v 0.000000 3.717668 0.083218
v -0.618199 1.529797 -0.079922
v 0.000000 1.529797 -0.091048
v 0.618199 1.529797 -0.079922
v 0.618199 1.529797 0.079922
v -0.618199 1.529797 0.079922
v 0.000000 1.529797 0.091048
vn -0.9993 0.0382 0.0000
vn 0.1145 0.0166 -0.9933
vn 0.9993 0.0382 0.0000
vn -0.1145 0.0166 0.9933
vn 0.0000 -1.0000 0.0000
vn 0.0617 0.2609 0.9634
vn 0.7705 -0.6374 0.0000
vn 0.1145 0.0166 0.9933
vn -0.1145 0.0166 -0.9933
vn 0.7037 -0.7105 0.0000
vn -0.0617 0.2609 -0.9634
vn -0.7705 -0.6374 0.0000
vn -0.0617 0.2609 0.9634
vn 0.0617 0.2609 -0.9634
vn -0.7037 -0.7105 0.0000
vn 0.9805 0.1963 0.0000
vn 1.0000 0.0000 0.0000
vn -1.0000 0.0000 0.0000
vn -0.9805 0.1963 0.0000
vn -0.3237 0.9461 0.0000
vn 0.3237 0.9461 0.0000
vn 0.8137 0.5813 0.0000
vn -0.8137 0.5813 0.0000
vn -0.3706 -0.9288 0.0000
vn 0.3706 -0.9288 0.0000
vn -0.0093 0.0220 -0.9997
vn 0.0093 0.0220 -0.9997
vn -0.0107 0.0011 -0.9999
vn 0.0100 0.0000 -0.9999
vn -0.0100 0.0000 -0.9999
vn 0.0107 0.0011 -0.9999
vn 0.0149 0.0045 -0.9999
vn -0.0149 0.0045 -0.9999
vn 0.0241 0.0365 -0.9990
vn -0.0241 0.0365 -0.9990
vn -0.0100 0.0000 0.9999
vn 0.0100 0.0000 0.9999
vn 0.0093 0.0220 0.9997
vn -0.0093 0.0220 0.9997
vn -0.0149 0.0045 0.9999
vn 0.0149 0.0045 0.9999
vn 0.0107 0.0011 0.9999
vn -0.0107 0.0011 0.9999
vn -0.0241 0.0365 0.9990
vn 0.0241 0.0365 0.9990
usemtl DD9944
s off
f 1//1 2//1 4//1 3//1
f 9//2 10//2 8//2 7//2
f 7//3 8//3 6//3 5//3
f 11//4 12//4 2//4 1//4
f 9//5 7//5 5//5 11//5
f 12//6 6//6 17//6 18//6
f 6//7 8//7 16//7 17//7
f 3//5 9//5 11//5 1//5
f 5//8 6//8 12//8 11//8
f 3//9 4//9 10//9 9//9
f 46//10 45//10 22//10 23//10
f 10//11 4//11 14//11 15//11
f 4//12 2//12 13//12 14//12
f 2//13 12//13 18//13 13//13
f 8//14 10//14 15//14 16//14
f 43//15 47//15 19//15 20//15
f 29//16 28//16 34//16 35//16
f 23//17 22//17 28//17 29//17
f 20//18 19//18 25//18 26//18
f 26//19 25//19 31//19 32//19
f 39//20 38//20 37//20 42//20
f 40//21 39//21 42//21 41//21
f 35//22 34//22 40//22 41//22
f 32//23 31//23 37//23 38//23
f 14//24 13//24 47//24 43//24
f 17//25 16//25 45//25 46//25
usemtl 1A1A1A
f 44//26 43//26 20//26 21//26
f 45//27 44//27 21//27 22//27
f 27//28 26//28 32//28 33//28
f 22//29 21//29 27//29 28//29
f 21//30 20//30 26//30 27//30
f 28//31 27//31 33//31 34//31
f 34//32 33//32 39//32 40//32
f 33//33 32//33 38//33 39//33
f 16//34 15//34 44//34 45//34
f 15//35 14//35 43//35 44//35
usemtl F44336
f 19//36 24//36 30//36 25//36
f 24//37 23//37 29//37 30//37
f 48//38 46//38 23//38 24//38
f 47//39 48//39 24//39 19//39
f 31//40 36//40 42//40 37//40
f 36//41 35//41 41//41 42//41
f 30//42 29//42 35//42 36//42
f 25//43 30//43 36//43 31//43
f 13//44 18//44 48//44 47//44
f 18//45 17//45 46//45 48//45
