# Blender v2.90.0 OBJ File: 'Manhole_cover_02.blend'
# www.blender.org
mtllib Manhole_cover_02.mtl
o Manhole_cover_02_Cube.002
v -1.342599 -0.265505 1.351894
v -1.342599 0.148213 1.351894
v -1.342599 -0.265505 -1.333304
v -1.342599 0.148213 -1.333304
v 1.342599 -0.265505 1.351894
v 1.342599 0.148213 1.351894
v 1.342599 -0.265505 -1.333304
v 1.342599 0.148213 -1.333304
v 0.805559 -0.265505 -1.333304
v 0.268520 -0.265505 -1.333304
v -0.268520 -0.265505 -1.333304
v -0.805559 -0.265505 -1.333304
v -0.805559 0.148213 -1.333304
v -0.268520 0.148213 -1.333304
v 0.268520 0.148213 -1.333304
v 0.805559 0.148213 -1.333304
v -0.805559 -0.265505 1.351894
v -0.268520 -0.265505 1.351894
v 0.268520 -0.265505 1.351894
v 0.805559 -0.265505 1.351894
v 0.805559 0.148213 1.351894
v 0.268520 0.148213 1.351894
v -0.268520 0.148213 1.351894
v -0.805559 0.148213 1.351894
v -1.342599 -0.265505 1.083374
v -1.342599 0.148213 1.083374
v 1.342599 -0.265505 1.083374
v 1.342599 0.148213 1.083374
v 0.805559 0.148213 1.083374
v 0.268520 0.148213 1.083374
v -0.268520 0.148213 1.083374
v -0.805559 0.148213 1.083374
v -0.805559 -0.265505 1.083374
v -0.268520 -0.265505 1.083374
v 0.268520 -0.265505 1.083374
v 0.805559 -0.265505 1.083374
v -1.074079 -0.265505 -1.333304
v -1.074079 0.148213 1.351894
v -1.074079 0.148213 -1.333304
v -1.074079 -0.265505 1.351894
v -1.074079 -0.265505 1.083374
v -1.074079 0.148213 1.083374
v 1.074079 0.148213 -1.333304
v 1.074079 -0.265505 1.351894
v 1.074079 -0.265505 -1.333304
v 1.074079 0.148213 1.351894
v 1.074079 0.148213 1.083374
v 1.074079 -0.265505 1.083374
v -1.342599 0.148213 -1.091636
v 1.342599 -0.265505 -1.091636
v -1.342599 -0.265505 -1.091636
v 1.342599 0.148213 -1.091636
v 0.805559 0.148213 -1.091636
v 0.268520 0.148213 -1.091636
v -0.268520 0.148213 -1.091636
v -0.805559 0.148213 -1.091636
v -0.805559 -0.265505 -1.091636
v -0.268520 -0.265505 -1.091636
v 0.268520 -0.265505 -1.091636
v 0.805559 -0.265505 -1.091636
v -1.074079 0.148213 -1.091636
v -1.074079 -0.265505 -1.091636
v 1.074079 -0.265505 -1.091636
v 1.074079 0.148213 -1.091636
v -0.312491 0.148213 -1.047664
v -0.761588 0.148213 -1.047664
v -0.761588 0.148213 1.039402
v -0.312491 0.148213 1.039402
v 0.224548 0.148213 -1.047664
v -0.224548 0.148213 -1.047664
v -0.224548 0.148213 1.039402
v 0.224548 0.148213 1.039402
v 0.761588 0.148213 -1.047664
v 0.312491 0.148213 -1.047664
v 0.312491 0.148213 1.039402
v 0.761588 0.148213 1.039402
v 1.030107 0.148213 -1.047664
v 0.849531 0.148213 -1.047664
v 0.849531 0.148213 1.039402
v 1.030107 0.148213 1.039402
v -0.849531 0.148213 -1.047664
v -1.030107 0.148213 -1.047664
v -1.030107 0.148213 1.039402
v -0.849531 0.148213 1.039402
v -0.761588 0.039454 -1.047664
v -0.312491 0.039454 -1.047664
v -0.312491 0.039454 1.039402
v -0.761588 0.039454 1.039402
v -0.224548 0.039454 -1.047664
v 0.224548 0.039454 -1.047664
v 0.224548 0.039454 1.039402
v -0.224548 0.039454 1.039402
v 0.312491 0.039454 -1.047664
v 0.761588 0.039454 -1.047664
v 0.761588 0.039454 1.039402
v 0.312491 0.039454 1.039402
v 0.849531 0.039454 -1.047664
v 1.030107 0.039454 -1.047664
v 1.030107 0.039454 1.039402
v 0.849531 0.039454 1.039402
v -1.030107 0.039454 -1.047664
v -0.849531 0.039454 -1.047664
v -0.849531 0.039454 1.039402
v -1.030107 0.039454 1.039402
vt 0.625000 0.227500
vt 0.375000 0.250000
vt 0.375000 0.227500
vt 0.625000 0.475000
vt 0.375000 0.500000
vt 0.375000 0.475000
vt 0.625000 0.725000
vt 0.375000 0.750000
vt 0.375000 0.725000
vt 0.625000 0.975000
vt 0.375000 1.000000
vt 0.375000 0.975000
vt 0.350000 0.750000
vt 0.350000 0.725000
vt 0.875000 0.725000
vt 0.850000 0.750000
vt 0.850000 0.725000
vt 0.675000 0.725000
vt 0.650000 0.750000
vt 0.650000 0.725000
vt 0.725000 0.725000
vt 0.675000 0.750000
vt 0.775000 0.725000
vt 0.725000 0.750000
vt 0.825000 0.725000
vt 0.775000 0.750000
vt 0.175000 0.725000
vt 0.150000 0.750000
vt 0.150000 0.725000
vt 0.225000 0.725000
vt 0.175000 0.750000
vt 0.275000 0.725000
vt 0.225000 0.750000
vt 0.325000 0.725000
vt 0.275000 0.750000
vt 0.625000 0.775000
vt 0.375000 0.800000
vt 0.375000 0.775000
vt 0.625000 0.800000
vt 0.375000 0.850000
vt 0.625000 0.850000
vt 0.375000 0.900000
vt 0.625000 0.900000
vt 0.375000 0.950000
vt 0.625000 0.275000
vt 0.375000 0.300000
vt 0.375000 0.275000
vt 0.625000 0.300000
vt 0.375000 0.350000
vt 0.625000 0.350000
vt 0.375000 0.400000
vt 0.625000 0.400000
vt 0.375000 0.450000
vt 0.325000 0.522500
vt 0.275000 0.522500
vt 0.225000 0.522500
vt 0.175000 0.522500
vt 0.150000 0.522500
vt 0.779094 0.720906
vt 0.820906 0.720906
vt 0.820906 0.720906
vt 0.654094 0.526594
vt 0.654094 0.720906
vt 0.654094 0.720906
vt 0.770906 0.720906
vt 0.770906 0.526594
vt 0.770906 0.526594
vt 0.845906 0.526594
vt 0.829094 0.526594
vt 0.829094 0.526594
vt 0.875000 0.522500
vt 0.850000 0.522500
vt 0.375000 0.522500
vt 0.350000 0.522500
vt 0.625000 0.522500
vt 0.625000 0.000000
vt 0.375000 0.025000
vt 0.375000 0.000000
vt 0.679094 0.526594
vt 0.679094 0.720906
vt 0.679094 0.720906
vt 0.125000 0.725000
vt 0.125000 0.522500
vt 0.625000 0.250000
vt 0.125000 0.750000
vt 0.825000 0.750000
vt 0.625000 0.950000
vt 0.650000 0.522500
vt 0.625000 0.750000
vt 0.325000 0.750000
vt 0.625000 0.450000
vt 0.650000 0.500000
vt 0.625000 0.500000
vt 0.350000 0.500000
vt 0.325000 0.500000
vt 0.150000 0.500000
vt 0.125000 0.500000
vt 0.850000 0.500000
vt 0.825000 0.522500
vt 0.825000 0.500000
vt 0.875000 0.500000
vt 0.675000 0.500000
vt 0.725000 0.500000
vt 0.675000 0.522500
vt 0.775000 0.500000
vt 0.725000 0.522500
vt 0.775000 0.522500
vt 0.175000 0.500000
vt 0.225000 0.500000
vt 0.275000 0.500000
vt 0.625000 0.025000
vt 0.779094 0.526594
vt 0.820906 0.526594
vt 0.729094 0.526594
vt 0.729094 0.720906
vt 0.720906 0.526594
vt 0.720906 0.720906
vt 0.670906 0.526594
vt 0.670906 0.720906
vt 0.829094 0.720906
vt 0.845906 0.720906
vt 0.720906 0.526594
vt 0.829094 0.720906
vt 0.770906 0.720906
vt 0.670906 0.526594
vt 0.720906 0.720906
vt 0.845906 0.526594
vt 0.670906 0.720906
vt 0.845906 0.720906
vt 0.779094 0.526594
vt 0.729094 0.526594
vt 0.779094 0.720906
vt 0.679094 0.526594
vt 0.729094 0.720906
vt 0.654094 0.526594
vt 0.820906 0.526594
vt 0.625000 1.000000
vt 0.875000 0.750000
vn -1.0000 0.0000 0.0000
vn 0.0000 0.0000 -1.0000
vn 1.0000 0.0000 0.0000
vn 0.0000 0.0000 1.0000
vn 0.0000 -1.0000 0.0000
vn 0.0000 1.0000 0.0000
usemtl GrayManholecover02
s off
f 49/1/1 3/2/1 51/3/1
f 43/4/2 7/5/2 45/6/2
f 28/7/3 5/8/3 27/9/3
f 38/10/4 1/11/4 40/12/4
f 27/9/5 44/13/5 48/14/5
f 26/15/6 38/16/6 42/17/6
f 29/18/6 46/19/6 47/20/6
f 30/21/6 21/22/6 29/18/6
f 31/23/6 22/24/6 30/21/6
f 32/25/6 23/26/6 31/23/6
f 33/27/5 40/28/5 41/29/5
f 34/30/5 17/31/5 33/27/5
f 35/32/5 18/33/5 34/30/5
f 36/34/5 19/35/5 35/32/5
f 46/36/4 20/37/4 44/38/4
f 21/39/4 19/40/4 20/37/4
f 22/41/4 18/42/4 19/40/4
f 23/43/4 17/44/4 18/42/4
f 39/45/2 12/46/2 37/47/2
f 13/48/2 11/49/2 12/46/2
f 14/50/2 10/51/2 11/49/2
f 15/52/2 9/53/2 10/51/2
f 60/54/5 35/32/5 59/55/5
f 59/55/5 34/30/5 58/56/5
f 58/56/5 33/27/5 57/57/5
f 57/57/5 41/29/5 62/58/5
f 68/59/2 88/60/2 67/61/2
f 77/62/1 99/63/1 80/64/1
f 71/65/3 89/66/3 70/67/3
f 82/68/4 102/69/4 81/70/4
f 49/71/6 42/17/6 61/72/6
f 50/73/5 48/14/5 63/74/5
f 52/75/3 27/9/3 50/73/3
f 2/76/1 25/77/1 1/78/1
f 73/79/1 95/80/1 76/81/1
f 62/58/5 25/82/5 51/83/5
f 4/84/2 37/47/2 3/2/2
f 41/29/5 1/85/5 25/82/5
f 42/17/6 24/86/6 32/25/6
f 24/87/4 40/12/4 17/44/4
f 63/74/5 36/34/5 60/54/5
f 64/88/6 28/7/6 52/75/6
f 6/89/4 44/38/4 5/8/4
f 47/20/6 6/89/6 28/7/6
f 48/14/5 20/90/5 36/34/5
f 16/91/2 45/6/2 9/53/2
f 43/92/6 52/75/6 8/93/6
f 45/94/5 60/54/5 9/95/5
f 37/96/5 51/83/5 3/97/5
f 39/98/6 56/99/6 13/100/6
f 8/93/3 50/73/3 7/5/3
f 7/5/5 63/74/5 45/94/5
f 4/101/6 61/72/6 39/98/6
f 16/102/6 64/88/6 43/92/6
f 15/103/6 53/104/6 16/102/6
f 14/105/6 54/106/6 15/103/6
f 13/100/6 55/107/6 14/105/6
f 12/108/5 62/58/5 37/96/5
f 11/109/5 57/57/5 12/108/5
f 10/110/5 58/56/5 11/109/5
f 9/95/5 59/55/5 10/110/5
f 26/111/1 51/3/1 25/77/1
f 56/99/6 65/112/6 55/107/6
f 32/25/6 66/113/6 56/99/6
f 31/23/6 67/61/6 32/25/6
f 55/107/6 68/59/6 31/23/6
f 55/107/6 69/114/6 54/106/6
f 31/23/6 70/67/6 55/107/6
f 30/21/6 71/65/6 31/23/6
f 54/106/6 72/115/6 30/21/6
f 54/106/6 73/79/6 53/104/6
f 30/21/6 74/116/6 54/106/6
f 29/18/6 75/117/6 30/21/6
f 53/104/6 76/81/6 29/18/6
f 64/88/6 78/118/6 77/62/6
f 29/18/6 78/118/6 53/104/6
f 47/20/6 79/119/6 29/18/6
f 64/88/6 80/64/6 47/20/6
f 61/72/6 81/70/6 56/99/6
f 42/17/6 82/68/6 61/72/6
f 42/17/6 84/120/6 83/121/6
f 56/99/6 84/120/6 32/25/6
f 75/117/3 93/122/3 74/116/3
f 81/70/1 103/123/1 84/120/1
f 72/115/2 92/124/2 71/65/2
f 79/119/3 97/125/3 78/118/3
f 76/81/2 96/126/2 75/117/2
f 83/121/3 101/127/3 82/68/3
f 80/64/2 100/128/2 79/119/2
f 84/120/2 104/129/2 83/121/2
f 66/113/4 86/130/4 65/112/4
f 70/67/4 90/131/4 69/114/4
f 65/112/1 87/132/1 68/59/1
f 74/116/4 94/133/4 73/79/4
f 69/114/1 91/134/1 72/115/1
f 78/118/4 98/135/4 77/62/4
f 67/61/3 85/136/3 66/113/3
f 49/1/1 4/84/1 3/2/1
f 43/4/2 8/93/2 7/5/2
f 28/7/3 6/89/3 5/8/3
f 38/10/4 2/137/4 1/11/4
f 27/9/5 5/8/5 44/13/5
f 26/15/6 2/138/6 38/16/6
f 29/18/6 21/22/6 46/19/6
f 30/21/6 22/24/6 21/22/6
f 31/23/6 23/26/6 22/24/6
f 32/25/6 24/86/6 23/26/6
f 33/27/5 17/31/5 40/28/5
f 34/30/5 18/33/5 17/31/5
f 35/32/5 19/35/5 18/33/5
f 36/34/5 20/90/5 19/35/5
f 46/36/4 21/39/4 20/37/4
f 21/39/4 22/41/4 19/40/4
f 22/41/4 23/43/4 18/42/4
f 23/43/4 24/87/4 17/44/4
f 39/45/2 13/48/2 12/46/2
f 13/48/2 14/50/2 11/49/2
f 14/50/2 15/52/2 10/51/2
f 15/52/2 16/91/2 9/53/2
f 60/54/5 36/34/5 35/32/5
f 59/55/5 35/32/5 34/30/5
f 58/56/5 34/30/5 33/27/5
f 57/57/5 33/27/5 41/29/5
f 68/59/2 87/132/2 88/60/2
f 77/62/1 98/135/1 99/63/1
f 71/65/3 92/124/3 89/66/3
f 82/68/4 101/127/4 102/69/4
f 49/71/6 26/15/6 42/17/6
f 50/73/5 27/9/5 48/14/5
f 52/75/3 28/7/3 27/9/3
f 2/76/1 26/111/1 25/77/1
f 73/79/1 94/133/1 95/80/1
f 62/58/5 41/29/5 25/82/5
f 4/84/2 39/45/2 37/47/2
f 41/29/5 40/28/5 1/85/5
f 42/17/6 38/16/6 24/86/6
f 24/87/4 38/10/4 40/12/4
f 63/74/5 48/14/5 36/34/5
f 64/88/6 47/20/6 28/7/6
f 6/89/4 46/36/4 44/38/4
f 47/20/6 46/19/6 6/89/6
f 48/14/5 44/13/5 20/90/5
f 16/91/2 43/4/2 45/6/2
f 43/92/6 64/88/6 52/75/6
f 45/94/5 63/74/5 60/54/5
f 37/96/5 62/58/5 51/83/5
f 39/98/6 61/72/6 56/99/6
f 8/93/3 52/75/3 50/73/3
f 7/5/5 50/73/5 63/74/5
f 4/101/6 49/71/6 61/72/6
f 16/102/6 53/104/6 64/88/6
f 15/103/6 54/106/6 53/104/6
f 14/105/6 55/107/6 54/106/6
f 13/100/6 56/99/6 55/107/6
f 12/108/5 57/57/5 62/58/5
f 11/109/5 58/56/5 57/57/5
f 10/110/5 59/55/5 58/56/5
f 9/95/5 60/54/5 59/55/5
f 26/111/1 49/1/1 51/3/1
f 56/99/6 66/113/6 65/112/6
f 32/25/6 67/61/6 66/113/6
f 31/23/6 68/59/6 67/61/6
f 55/107/6 65/112/6 68/59/6
f 55/107/6 70/67/6 69/114/6
f 31/23/6 71/65/6 70/67/6
f 30/21/6 72/115/6 71/65/6
f 54/106/6 69/114/6 72/115/6
f 54/106/6 74/116/6 73/79/6
f 30/21/6 75/117/6 74/116/6
f 29/18/6 76/81/6 75/117/6
f 53/104/6 73/79/6 76/81/6
f 64/88/6 53/104/6 78/118/6
f 29/18/6 79/119/6 78/118/6
f 47/20/6 80/64/6 79/119/6
f 64/88/6 77/62/6 80/64/6
f 61/72/6 82/68/6 81/70/6
f 42/17/6 83/121/6 82/68/6
f 42/17/6 32/25/6 84/120/6
f 56/99/6 81/70/6 84/120/6
f 75/117/3 96/126/3 93/122/3
f 81/70/1 102/69/1 103/123/1
f 72/115/2 91/134/2 92/124/2
f 79/119/3 100/128/3 97/125/3
f 76/81/2 95/80/2 96/126/2
f 83/121/3 104/129/3 101/127/3
f 80/64/2 99/63/2 100/128/2
f 84/120/2 103/123/2 104/129/2
f 66/113/4 85/136/4 86/130/4
f 70/67/4 89/66/4 90/131/4
f 65/112/1 86/130/1 87/132/1
f 74/116/4 93/122/4 94/133/4
f 69/114/1 90/131/1 91/134/1
f 78/118/4 97/125/4 98/135/4
f 67/61/3 88/60/3 85/136/3
usemtl BlackManholecover02
f 85/136/6 87/132/6 86/130/6
f 89/66/6 91/134/6 90/131/6
f 93/122/6 95/80/6 94/133/6
f 97/125/6 99/63/6 98/135/6
f 101/127/6 103/123/6 102/69/6
f 85/136/6 88/60/6 87/132/6
f 89/66/6 92/124/6 91/134/6
f 93/122/6 96/126/6 95/80/6
f 97/125/6 100/128/6 99/63/6
f 101/127/6 104/129/6 103/123/6
