mtllib materials.mtl
v -0.1857691 -0.7353849 1.17923
v -0.1857686 -0.7353847 -0.8907697
v -0.1857686 -0.6953847 -0.8907698
v -0.1857691 -0.695385 1.17923
v 0.1842308 -0.7353849 1.17923
v 0.1842308 -0.695385 1.17923
v 0.1842313 -0.6953846 -0.8907696
v 0.1842313 -0.7353846 -0.8907697
v -0.1857686 0.9846152 -0.4507691
v -0.1857686 0.9846151 -0.9307691
v -0.1857686 1.024615 -0.9307691
v -0.1857686 1.024615 -0.4507691
v 0.1842313 0.9846152 -0.450769
v 0.1842313 1.024615 -0.450769
v 0.1842313 1.024615 -0.9307691
v 0.1842313 0.9846152 -0.9307691
v -0.1857686 0.1646155 -0.04076886
v -0.1857686 0.554616 -0.04076928
v -0.1857686 0.5546159 -0.0007690787
v -0.1857686 0.1646155 -0.0007688999
v 0.1842313 0.1646154 -0.0407688
v 0.1842313 0.1646154 -0.0007687807
v 0.1842313 0.5546159 -0.0007690787
v 0.1842313 0.554616 -0.04076904
v -0.1857691 -0.305385 1.179231
v -0.1857686 -0.3053847 -0.890769
v -0.1857686 -0.2653847 -0.890769
v -0.1857691 -0.265385 1.179231
v 0.1842308 -0.305385 1.179231
v 0.1842308 -0.265385 1.179231
v 0.1842313 -0.2653846 -0.8907689
v 0.1842313 -0.3053846 -0.8907689
v -0.1857686 0.1246157 0.5892303
v -0.1857686 0.1246156 -0.8907697
v -0.1857686 0.1646156 -0.8907697
v -0.1857686 0.1646156 0.5892303
v 0.1842313 0.1246157 0.5892304
v 0.1842313 0.1646156 0.5892304
v 0.1842313 0.1646156 -0.8907697
v 0.1842313 0.1246157 -0.8907697
v -0.1857686 0.5946152 -0.4907689
v -0.1857686 0.9846156 -0.4907693
v -0.1857686 0.9846154 -0.4507691
v -0.1857686 0.5946152 -0.450769
v 0.1842313 0.5946151 -0.4907688
v 0.1842313 0.594615 -0.4507688
v 0.1842313 0.9846154 -0.4507691
v 0.1842313 0.9846156 -0.490769
v -0.1857686 -0.8553843 1.139231
v -0.1857686 -0.735384 1.13923
v -0.1857686 -0.7353842 1.17923
v -0.1857686 -0.8553843 1.179231
v 0.1842313 -0.8553845 1.139231
v 0.1842313 -0.8553845 1.179231
v 0.1842313 -0.7353842 1.17923
v 0.1842313 -0.735384 1.13923
v -0.1857686 0.5546154 -0.0007689595
v -0.1857686 0.5546153 -0.9007689
v -0.1857686 0.5946153 -0.900769
v -0.1857686 0.5946153 -0.0007689595
v 0.1842313 0.5546154 -0.0007688403
v 0.1842313 0.5946153 -0.0007688403
v 0.1842313 0.5946153 -0.9007689
v 0.1842313 0.5546154 -0.9007689
v -0.1857686 -0.8553852 -0.9307687
v -0.1857686 0.9846163 -0.9307702
v -0.1857686 0.9846162 -0.8907699
v -0.1857686 -0.8553852 -0.8907687
v 0.1842313 -0.8553852 -0.9307686
v 0.1842313 -0.8553852 -0.8907686
v 0.1842313 0.9846162 -0.8907699
v 0.1842313 0.9846163 -0.9307698
v -0.1857686 -0.2653848 -0.4807689
v -0.1857686 0.1246156 -0.4807693
v -0.1857686 0.1246154 -0.4407691
v -0.1857686 -0.2653848 -0.4407689
v 0.1842313 -0.2653849 -0.4807688
v 0.1842313 -0.2653849 -0.4407688
v 0.1842313 0.1246154 -0.4407691
v 0.1842313 0.1246156 -0.480769
v -0.1857686 -0.2653844 0.5492307
v -0.1857686 0.1246159 0.5492302
v -0.1857686 0.1246158 0.5892304
v -0.1857686 -0.2653844 0.5892307
v 0.1842313 -0.2653846 0.5492308
v 0.1842313 -0.2653846 0.5892308
v 0.1842313 0.1246158 0.5892304
v 0.1842313 0.1246159 0.5492305
v -0.1757689 -0.6953845 -0.04076886
v -0.1757689 -0.3053841 -0.04076928
v -0.1757689 -0.3053842 -0.0007690787
v -0.1757689 -0.6953845 -0.0007688999
v 0.194231 -0.6953846 -0.0407688
v 0.194231 -0.6953846 -0.0007687807
v 0.194231 -0.3053842 -0.0007690787
v 0.194231 -0.3053841 -0.04076904
v -0.1857686 -0.6953849 1.139231
v -0.1857686 -0.3053845 1.13923
v -0.1857686 -0.3053846 1.17923
v -0.1857686 -0.6953849 1.179231
v 0.1842313 -0.695385 1.139231
v 0.1842313 -0.695385 1.179231
v 0.1842313 -0.3053846 1.17923
v 0.1842313 -0.3053845 1.13923
vn -1 -1.309698E-07 -2.442718E-07
vn 1 1.777609E-07 3.018608E-07
vn 9.429868E-08 -1 -1.397434E-07
vn -9.429868E-08 1 1.669932E-07
vn -5.385438E-07 -1.748456E-07 1
vn 3.052099E-07 1.748455E-07 -1
vn -1 -1.141543E-07 2.123147E-08
vn 1 -4.494673E-08 2.271212E-07
vn 9.429867E-08 -1 1.358557E-07
vn -9.42987E-08 1 -2.819141E-09
vn -2.659345E-07 -2.464387E-14 1
vn 1.303643E-07 -2.156449E-14 -1
vn -1 1.100685E-08 1.49496E-07
vn 1 -1.100684E-08 2.469091E-07
vn 3.899644E-07 -7.052795E-07 -1
vn -8.79138E-08 3.995532E-07 1
vn -3.130539E-07 -1 1.192093E-07
vn -1.829322E-08 1 3.047281E-06
vn -1 -1.309699E-07 -2.442718E-07
vn 1 1.777609E-07 3.018608E-07
vn 9.429873E-08 -1 -1.591992E-07
vn -9.429874E-08 1 1.885891E-07
vn -5.385438E-07 -1.748456E-07 1
vn 3.052099E-07 1.748455E-07 -1
vn -1 -7.964923E-08 -1.176278E-07
vn 1 3.30831E-08 9.749113E-08
vn 9.429869E-08 -1 5.208876E-08
vn -9.429871E-08 1 -5.540331E-09
vn -4.547163E-07 6.237269E-14 1
vn 1.303643E-07 -2.156449E-14 -1
vn -1 1.858523E-07 -2.534949E-08
vn 1 -1.858524E-07 4.217546E-07
vn 5.648099E-07 -4.668609E-07 -1
vn -2.627593E-07 1.611346E-07 1
vn -4.878995E-07 -1 -5.960465E-08
vn 1.565518E-07 1 3.226095E-06
vn -1 -3.675257E-08 -2.278834E-07
vn 1 3.675245E-08 -6.364726E-08
vn 4.70511E-07 -2.454657E-06 -1
vn -1.483237E-07 1.504679E-06 1
vn -3.227185E-07 -1 2.793881E-09
vn -1.829322E-08 1 3.047281E-06
vn -1 -6.681209E-08 3.63989E-09
vn 1 -1.215221E-07 1.288149E-07
vn 9.429868E-08 -1 5.589952E-08
vn -9.42987E-08 1 -1.503549E-09
vn -4.092074E-07 -4.969449E-14 1
vn 1.303643E-07 -2.156449E-14 -1
vn -1 2.389354E-09 4.753608E-08
vn 1 -2.389375E-09 5.166723E-08
vn 5.6481E-07 -4.318442E-07 -1
vn -2.224861E-07 3.869613E-07 1
vn -1.564893E-07 -1 -5.960463E-08
vn 3.37567E-10 1 3.039831E-06
vn -1 1.100685E-08 1.49496E-07
vn 1 -1.100684E-08 2.469091E-07
vn 3.899644E-07 -7.052795E-07 -1
vn -8.79138E-08 3.995532E-07 1
vn -3.130539E-07 -1 1.192093E-07
vn -1.829322E-08 1 3.047281E-06
vn -1 1.100685E-08 1.49496E-07
vn 1 -1.100689E-08 2.469091E-07
vn 4.705112E-07 -7.56912E-07 -1
vn -1.684606E-07 4.759693E-07 1
vn -3.105373E-07 -1 1.192093E-07
vn -1.829322E-08 1 3.047281E-06
vn -1 1.100685E-08 1.49496E-07
vn 1 -1.100684E-08 2.469091E-07
vn 3.899644E-07 -7.052795E-07 -1
vn -8.79138E-08 3.995532E-07 1
vn -3.130539E-07 -1 1.192093E-07
vn -1.829322E-08 1 3.047281E-06
vn -1 1.100685E-08 1.49496E-07
vn 1 -1.100684E-08 2.469091E-07
vn 3.899644E-07 -7.052795E-07 -1
vn -8.79138E-08 3.995532E-07 1
vn -3.130539E-07 -1 1.192093E-07
vn -1.829322E-08 1 3.047281E-06
vt -0.173325 -0.09799682
vt -0.004882242 0.02231959
vt -0.007207196 0.02557453
vt -0.1756499 -0.0947419
vt 0.173325 -0.09799685
vt 0.1756499 -0.09474193
vt 0.007207172 0.02557452
vt 0.004882213 0.02231959
vt 0.3223447 0.3138691
vt 0.3347892 0.3487135
vt 0.1398486 0.4183352
vt 0.1274042 0.3834908
vt -0.3223447 0.3138691
vt -0.1274042 0.3834908
vt -0.1398486 0.4183352
vt -0.3347892 0.3487135
vt -0.1618914 0.3707401
vt -0.1583137 0.372529
vt -0.1748606 0.4056228
vt -0.1784383 0.4038339
vt 0.1618913 0.3707401
vt 0.1784382 0.4038339
vt 0.1748605 0.4056227
vt 0.1583136 0.3725289
vt -0.1406596 0.1367072
vt -0.1016004 0.1646066
vt -0.1039254 0.1678615
vt -0.1429846 0.1399621
vt 0.1406596 0.1367072
vt 0.1429846 0.1399622
vt 0.1039253 0.1678616
vt 0.1016004 0.1646067
vt 0.1688409 0.368692
vt 0.1812853 0.4035364
vt 0.1360817 0.4196805
vt 0.1236372 0.3848361
vt -0.1688409 0.368692
vt -0.1236373 0.3848361
vt -0.1360817 0.4196806
vt -0.1812853 0.4035364
vt -0.008049875 0.4476608
vt -0.004472169 0.4494497
vt -0.02101907 0.4825435
vt -0.02459677 0.4807546
vt 0.00804988 0.4476608
vt 0.02459677 0.4807546
vt 0.02101906 0.4825435
vt 0.004472164 0.4494496
vt -0.1263613 0.0461503
vt -0.1490295 0.07788597
vt -0.1522845 0.075561
vt -0.1296162 0.04382535
vt 0.1263611 0.04615032
vt 0.1296161 0.04382537
vt 0.1522844 0.07556102
vt 0.1490294 0.07788598
vt 0.08139302 0.4109893
vt 0.09793994 0.4440831
vt 0.06305723 0.4615244
vt 0.04651032 0.4284306
vt -0.08139294 0.4109893
vt -0.04651025 0.4284306
vt -0.06305715 0.4615244
vt -0.09793986 0.4440831
vt 0.2074523 0.3549021
vt 0.2112193 0.3535568
vt 0.2236637 0.3884012
vt 0.2198968 0.3897466
vt -0.2074523 0.3549021
vt -0.2198968 0.3897465
vt -0.2236638 0.3884011
vt -0.2112193 0.3535567
vt -0.1983183 -0.06300634
vt -0.02987556 0.05731008
vt -0.03220052 0.06056501
vt -0.2006433 -0.05975141
vt 0.1983183 -0.06300637
vt 0.2006432 -0.05975144
vt 0.03220049 0.060565
vt 0.02987554 0.05731007
vt 0.3223448 0.3138691
vt 0.3347892 0.3487135
vt 0.1398487 0.4183352
vt 0.1274042 0.3834907
vt -0.3223448 0.3138691
vt -0.1274042 0.3834907
vt -0.1398487 0.4183352
vt -0.3347893 0.3487135
vt -0.123431 0.3899703
vt -0.1198533 0.3917592
vt -0.1364002 0.4248529
vt -0.1399779 0.4230641
vt 0.123431 0.3899702
vt 0.1399778 0.4230641
vt 0.1364001 0.4248529
vt 0.1198532 0.3917591
vt -0.1753014 0.006277398
vt -0.05486881 0.09230067
vt -0.05719377 0.09555561
vt -0.1776263 0.009532329
vt 0.1753014 0.006277403
vt 0.1776263 0.009532333
vt 0.05719378 0.09555562
vt 0.05486883 0.09230069
vt 0.266782 0.333713
vt 0.2792264 0.3685575
vt 0.1398486 0.4183353
vt 0.1274042 0.3834908
vt -0.266782 0.333713
vt -0.1274042 0.3834908
vt -0.1398486 0.4183353
vt -0.2792265 0.3685575
vt -0.08497061 0.4092005
vt -0.0813929 0.4109894
vt -0.0979398 0.4440832
vt -0.1015175 0.4422943
vt 0.08497058 0.4092004
vt 0.1015175 0.4422943
vt 0.09793976 0.4440831
vt 0.08139286 0.4109893
vt -0.1147364 0.1072966
vt -0.1374047 0.1390323
vt -0.1406597 0.1367073
vt -0.1179914 0.1049717
vt 0.1147364 0.1072967
vt 0.1179913 0.1049717
vt 0.1406596 0.1367074
vt 0.1374047 0.1390323
vt 0.04293264 0.4302195
vt 0.05947956 0.4633133
vt 0.02459686 0.4807546
vt 0.008049955 0.4476608
vt -0.04293256 0.4302195
vt -0.008049882 0.4476608
vt -0.02459678 0.4807546
vt -0.05947949 0.4633133
vt 0.1650739 0.3700372
vt 0.1688409 0.3686919
vt 0.1812854 0.4035363
vt 0.1775184 0.4048817
vt -0.1650738 0.3700373
vt -0.1775183 0.4048817
vt -0.1812853 0.4035363
vt -0.1688408 0.3686919
vt -0.1630953 -0.1054366
vt -0.1700702 -0.09567174
vt -0.1733251 -0.09799672
vt -0.1663503 -0.1077615
vt 0.1630955 -0.1054366
vt 0.1663504 -0.1077616
vt 0.1733252 -0.09799673
vt 0.1700703 -0.09567177
vt 0.1726252 0.3653733
vt 0.1891721 0.398467
vt 0.1784389 0.4038336
vt 0.161892 0.3707398
vt -0.1726249 0.3653733
vt -0.1618917 0.3707399
vt -0.1784386 0.4038337
vt -0.1891718 0.3984671
vt 0.3185778 0.3152145
vt 0.3223448 0.3138691
vt 0.3347893 0.3487136
vt 0.3310223 0.3500589
vt -0.3185781 0.3152141
vt -0.3310227 0.3500585
vt -0.3347896 0.3487131
vt -0.3223451 0.3138687
vt -0.1522844 0.07556091
vt -0.0790484 0.1278723
vt -0.08137335 0.1311273
vt -0.1546094 0.07881585
vt 0.1522844 0.07556101
vt 0.1546094 0.07881594
vt 0.08137336 0.1311274
vt 0.07904841 0.1278725
vt 0.2112193 0.3535568
vt 0.2236637 0.3884013
vt 0.1389069 0.4186715
vt 0.1264625 0.3838271
vt -0.2112193 0.3535568
vt -0.1264625 0.3838271
vt -0.138907 0.4186715
vt -0.2236637 0.3884013
vt -0.04651025 0.4284306
vt -0.04293255 0.4302195
vt -0.05947945 0.4633133
vt -0.06305715 0.4615244
vt 0.04651023 0.4284306
vt 0.06305712 0.4615244
vt 0.05947942 0.4633133
vt 0.04293252 0.4302195
vt 0.005347376 0.01487962
vt -0.1016004 0.1646068
vt -0.1048554 0.1622818
vt 0.002092441 0.01255467
vt -0.0053474 0.01487964
vt -0.002092465 0.01255468
vt 0.1048553 0.1622818
vt 0.1016004 0.1646068
vt 0.1726246 0.3653734
vt 0.1891715 0.3984672
vt 0.02459675 0.4807547
vt 0.008049849 0.4476609
vt -0.1726246 0.3653735
vt -0.008049829 0.4476609
vt -0.02459673 0.4807547
vt -0.1891715 0.3984673
vt 0.1236373 0.3848361
vt 0.1274043 0.3834907
vt 0.1398487 0.4183351
vt 0.1360818 0.4196805
vt -0.1236371 0.3848362
vt -0.1360817 0.4196806
vt -0.1398486 0.4183353
vt -0.1274041 0.3834908
vt -0.06556372 0.0367342
vt -0.088232 0.06846987
vt -0.09148695 0.0661449
vt -0.06881866 0.03440925
vt 0.0655636 0.03673426
vt 0.06881853 0.0344093
vt 0.09148683 0.06614494
vt 0.08823191 0.0684699
vt 0.1198534 0.3917591
vt 0.1364003 0.4248529
vt 0.1015176 0.4422942
vt 0.0849707 0.4092004
vt -0.1198533 0.3917591
vt -0.08497064 0.4092004
vt -0.1015175 0.4422942
vt -0.1364002 0.4248529
vt 0.1660157 0.369701
vt 0.1697826 0.3683556
vt 0.1822271 0.4032001
vt 0.1784601 0.4045454
vt -0.1660158 0.3697008
vt -0.1784603 0.4045452
vt -0.1822273 0.4031999
vt -0.1697828 0.3683555
vt -0.1493783 -0.02313326
vt -0.1720465 0.008602402
vt -0.1753015 0.006277428
vt -0.1526332 -0.02545821
vt 0.1493781 -0.02313326
vt 0.152633 -0.02545821
vt 0.1753013 0.006277437
vt 0.1720464 0.008602398
vt 0.1198535 0.3917591
vt 0.1364004 0.4248529
vt 0.1015177 0.4422943
vt 0.08497076 0.4092005
vt -0.1198534 0.3917591
vt -0.08497068 0.4092004
vt -0.1015176 0.4422942
vt -0.1364003 0.4248529
vt 0.2630151 0.3350583
vt 0.266782 0.333713
vt 0.2792265 0.3685574
vt 0.2754595 0.3699028
vt -0.2630152 0.3350581
vt -0.2754596 0.3699025
vt -0.2792266 0.3685572
vt -0.2667821 0.3337128
vt -0.07637478 -0.02383079
vt -0.09904306 0.007904876
vt -0.102298 0.005579902
vt -0.07962971 -0.02615574
vt 0.07637463 -0.02383074
vt 0.07962956 -0.0261557
vt 0.1022979 0.005579949
vt 0.09904294 0.00790491
vt 0.1587609 0.3734233
vt 0.1753079 0.4065171
vt 0.1404252 0.4239585
vt 0.1238783 0.3908647
vt -0.1587609 0.3734233
vt -0.1238782 0.3908647
vt -0.1404251 0.4239585
vt -0.1753078 0.4065171
vt 0.2077886 0.3558439
vt 0.2115556 0.3544985
vt 0.2240001 0.389343
vt 0.2202331 0.3906883
vt -0.2077889 0.3558437
vt -0.2202334 0.3906881
vt -0.2240004 0.3893427
vt -0.2115559 0.3544983
vt -0.1723953 -0.09241689
vt -0.1950636 -0.06068122
vt -0.1983185 -0.06300619
vt -0.1756502 -0.09474184
vt 0.1723951 -0.0924169
vt 0.17565 -0.09474184
vt 0.1983183 -0.0630062
vt 0.1950634 -0.06068124
vt 0.1583139 0.3725289
vt 0.1748608 0.4056227
vt 0.1399781 0.4230641
vt 0.1234312 0.3899702
vt -0.1583138 0.3725289
vt -0.1234311 0.3899702
vt -0.139978 0.4230641
vt -0.1748607 0.4056227
vt 0.3185778 0.3152145
vt 0.3223448 0.3138691
vt 0.3347892 0.3487136
vt 0.3310223 0.3500589
vt -0.318578 0.3152141
vt -0.3310225 0.3500585
vt -0.3347895 0.3487132
vt -0.322345 0.3138688
o group252943910
g mesh252943910
usemtl mat23
f 4/4/1 3/3/1 2/2/1 1/1/1
f 8/8/2 7/7/2 6/6/2 5/5/2
f 2/12/3 8/11/3 5/10/3 1/9/3
f 6/16/4 7/15/4 3/14/4 4/13/4
f 5/20/5 6/19/5 4/18/5 1/17/5
f 3/24/6 7/23/6 8/22/6 2/21/6
o group530080379
g mesh530080379
usemtl mat23
f 12/28/7 11/27/7 10/26/7 9/25/7
f 16/32/8 15/31/8 14/30/8 13/29/8
f 10/36/9 16/35/9 13/34/9 9/33/9
f 14/40/10 15/39/10 11/38/10 12/37/10
f 13/44/11 14/43/11 12/42/11 9/41/11
f 11/48/12 15/47/12 16/46/12 10/45/12
o group921275821
g mesh921275821
usemtl mat23
f 20/52/13 19/51/13 18/50/13 17/49/13
f 24/56/14 23/55/14 22/54/14 21/53/14
f 18/60/15 24/59/15 21/58/15 17/57/15
f 22/64/16 23/63/16 19/62/16 20/61/16
f 21/68/17 22/67/17 20/66/17 17/65/17
f 19/72/18 23/71/18 24/70/18 18/69/18
o group431821521
g mesh431821521
usemtl mat23
f 28/76/19 27/75/19 26/74/19 25/73/19
f 32/80/20 31/79/20 30/78/20 29/77/20
f 26/84/21 32/83/21 29/82/21 25/81/21
f 30/88/22 31/87/22 27/86/22 28/85/22
f 29/92/23 30/91/23 28/90/23 25/89/23
f 27/96/24 31/95/24 32/94/24 26/93/24
o group659176328
g mesh659176328
usemtl mat23
f 36/100/25 35/99/25 34/98/25 33/97/25
f 40/104/26 39/103/26 38/102/26 37/101/26
f 34/108/27 40/107/27 37/106/27 33/105/27
f 38/112/28 39/111/28 35/110/28 36/109/28
f 37/116/29 38/115/29 36/114/29 33/113/29
f 35/120/30 39/119/30 40/118/30 34/117/30
o group1808194429
g mesh1808194429
usemtl mat23
f 44/124/31 43/123/31 42/122/31 41/121/31
f 48/128/32 47/127/32 46/126/32 45/125/32
f 42/132/33 48/131/33 45/130/33 41/129/33
f 46/136/34 47/135/34 43/134/34 44/133/34
f 45/140/35 46/139/35 44/138/35 41/137/35
f 43/144/36 47/143/36 48/142/36 42/141/36
o group174979704
g mesh174979704
usemtl mat23
f 52/148/37 51/147/37 50/146/37 49/145/37
f 56/152/38 55/151/38 54/150/38 53/149/38
f 50/156/39 56/155/39 53/154/39 49/153/39
f 54/160/40 55/159/40 51/158/40 52/157/40
f 53/164/41 54/163/41 52/162/41 49/161/41
f 51/168/42 55/167/42 56/166/42 50/165/42
o group890327909
g mesh890327909
usemtl mat23
f 60/172/43 59/171/43 58/170/43 57/169/43
f 64/176/44 63/175/44 62/174/44 61/173/44
f 58/180/45 64/179/45 61/178/45 57/177/45
f 62/184/46 63/183/46 59/182/46 60/181/46
f 61/188/47 62/187/47 60/186/47 57/185/47
f 59/192/48 63/191/48 64/190/48 58/189/48
o group1082046218
g mesh1082046218
usemtl mat23
f 68/196/49 67/195/49 66/194/49 65/193/49
f 72/200/50 71/199/50 70/198/50 69/197/50
f 66/204/51 72/203/51 69/202/51 65/201/51
f 70/208/52 71/207/52 67/206/52 68/205/52
f 69/212/53 70/211/53 68/210/53 65/209/53
f 67/216/54 71/215/54 72/214/54 66/213/54
o group555946532
g mesh555946532
usemtl mat23
f 76/220/55 75/219/55 74/218/55 73/217/55
f 80/224/56 79/223/56 78/222/56 77/221/56
f 74/228/57 80/227/57 77/226/57 73/225/57
f 78/232/58 79/231/58 75/230/58 76/229/58
f 77/236/59 78/235/59 76/234/59 73/233/59
f 75/240/60 79/239/60 80/238/60 74/237/60
o group1813242810
g mesh1813242810
usemtl mat23
f 84/244/61 83/243/61 82/242/61 81/241/61
f 88/248/62 87/247/62 86/246/62 85/245/62
f 82/252/63 88/251/63 85/250/63 81/249/63
f 86/256/64 87/255/64 83/254/64 84/253/64
f 85/260/65 86/259/65 84/258/65 81/257/65
f 83/264/66 87/263/66 88/262/66 82/261/66
o group1750653242
g mesh1750653242
usemtl mat23
f 92/268/67 91/267/67 90/266/67 89/265/67
f 96/272/68 95/271/68 94/270/68 93/269/68
f 90/276/69 96/275/69 93/274/69 89/273/69
f 94/280/70 95/279/70 91/278/70 92/277/70
f 93/284/71 94/283/71 92/282/71 89/281/71
f 91/288/72 95/287/72 96/286/72 90/285/72
o group807391238
g mesh807391238
usemtl mat23
f 100/292/73 99/291/73 98/290/73 97/289/73
f 104/296/74 103/295/74 102/294/74 101/293/74
f 98/300/75 104/299/75 101/298/75 97/297/75
f 102/304/76 103/303/76 99/302/76 100/301/76
f 101/308/77 102/307/77 100/306/77 97/305/77
f 99/312/78 103/311/78 104/310/78 98/309/78
