# Blender v2.78 (sub 0) OBJ File: '10.blend'
# www.blender.org
mtllib Trophy_01.mtl
g Trophy_Cube.024
v -1.977708 0.000000 4.005476
v -1.977708 0.986172 3.648310
v -1.977708 0.000000 -4.005476
v -1.977708 0.986172 -3.648310
v 1.977708 0.000000 4.005476
v 1.977708 0.986172 3.648310
v 1.977708 0.000000 -4.005476
v 1.977708 0.986172 -3.648310
v -1.977708 0.493086 3.767709
v -1.977708 0.493086 -3.767709
v 1.977708 0.493086 -3.767709
v 1.977708 0.493086 3.767709
v -1.977708 0.000000 0.000000
v -1.984799 0.986172 0.000000
v 1.977708 0.000000 0.000000
v 1.984799 0.986172 0.000000
v 1.977708 0.493086 0.000000
v -1.977708 0.493086 0.000000
v 0.630178 0.986172 1.313035
v -0.630178 0.986172 1.313035
v -0.630178 0.986172 2.335275
v 0.630178 0.986172 2.335275
v 0.630178 0.986172 -2.335275
v -0.630178 0.986172 -2.335275
v -0.630178 0.986172 -1.313035
v 0.630178 0.986172 -1.313035
v -0.630178 4.175859 1.313035
v 0.630178 4.175859 1.313035
v 0.630178 4.175859 2.335275
v -0.630178 4.175859 2.335275
v -0.630178 4.175859 -2.335275
v 0.630178 4.175859 -2.335275
v 0.630178 4.175859 -1.313035
v -0.630178 4.175859 -1.313035
v -1.180885 3.891037 2.897716
v -1.180885 4.489580 2.897716
v -1.180885 3.891037 -2.897716
v -1.180885 4.489580 -2.897716
v 1.180885 3.891037 2.897716
v 1.180885 4.489580 2.897716
v 1.180885 3.891037 -2.897716
v 1.180885 4.489580 -2.897716
v -0.825189 4.489580 1.714350
v -0.825189 4.489580 -1.714350
v 0.825189 4.489580 -1.714350
v 0.825189 4.489580 1.714350
v -0.546913 12.133160 1.714350
v -0.546913 12.133160 -1.714350
v 0.546913 12.133160 -1.714350
v 0.546913 12.133160 1.714350
v -0.896214 12.245956 1.821403
v -0.896214 12.245956 -1.821403
v 0.896214 12.245956 -1.821403
v 0.896214 12.245956 1.821403
v -0.896214 12.455440 1.821403
v -0.896214 12.455440 -1.821403
v 0.896214 12.455440 -1.821403
v 0.896214 12.455440 1.821403
v -0.114272 11.946495 0.351703
v 1.047129 13.074475 0.760775
v -0.399960 13.074475 1.230971
v -1.294320 13.074482 0.000000
v -0.399960 13.074475 -1.230971
v 1.047129 13.074475 -0.760775
v 0.399960 14.368815 1.230971
v -1.047129 14.368813 0.760775
v -1.047129 14.368813 -0.760775
v 0.399960 14.368815 -1.230971
v 1.294320 14.368809 0.000000
v -0.000000 15.168743 0.000000
v -0.235089 12.490665 0.723541
v 0.615483 12.490667 0.447169
v 0.380396 12.960853 1.170717
v 1.230969 12.960855 0.000000
v 0.615483 12.490667 -0.447169
v -0.760781 12.490671 0.000000
v -0.995876 12.960855 0.723543
v -0.235089 12.490665 -0.723541
v -0.995876 12.960855 -0.723543
v 0.380396 12.960853 -1.170717
v 1.376271 13.721645 0.447171
v 1.376271 13.721645 -0.447171
v -0.000000 13.721645 1.447095
v 0.850582 13.721645 1.170725
v -1.376271 13.721645 0.447171
v -0.850582 13.721645 1.170725
v -0.850582 13.721645 -1.170725
v -1.376271 13.721645 -0.447171
v 0.850582 13.721645 -1.170725
v -0.000000 13.721645 -1.447095
v 0.995876 14.482436 0.723543
v -0.380396 14.482439 1.170717
v -1.230969 14.482436 0.000000
v -0.380396 14.482439 -1.170717
v 0.995876 14.482436 -0.723543
v 0.235089 14.952623 0.723541
v 0.760781 14.952620 0.000000
v -0.615483 14.952621 0.447169
v -0.615483 14.952621 -0.447169
v 0.235089 14.952623 -0.723541
v -0.114273 12.453646 0.351703
v -0.369805 12.453647 0.000000
v -0.114273 12.453646 -0.351703
v 0.299178 12.453647 0.217363
v 0.299178 12.453647 -0.217363
v -0.369803 11.946495 0.000000
v -0.114272 11.946495 -0.351703
v 0.299179 11.946495 0.217363
v 0.299179 11.946495 -0.217363
v -1.458353 3.891037 -1.448858
v -1.678737 3.891037 0.000000
v -1.458353 3.891037 1.448858
v -1.458353 4.489580 1.448858
v -1.678737 4.489580 0.000000
v -1.458353 4.489580 -1.448858
v 1.458353 3.891037 1.448858
v 1.678737 3.891037 0.000000
v 1.458353 3.891037 -1.448858
v 1.458353 4.489580 -1.448858
v 1.678737 4.489580 0.000000
v 1.458353 4.489580 1.448858
v -0.939429 4.489580 0.857175
v -0.993177 4.489580 0.000000
v -0.939429 4.489580 -0.857175
v 0.939429 4.489580 -0.857175
v 0.993177 4.489580 0.000000
v 0.939429 4.489580 0.857175
v -0.622627 12.133160 0.857175
v -0.658250 12.133160 0.000000
v -0.622627 12.133160 -0.857175
v 0.622627 12.133160 -0.857175
v 0.658250 12.133160 0.000000
v 0.622627 12.133160 0.857175
v -1.032444 12.245956 0.910702
v -1.098641 12.245956 -0.000000
v -1.032444 12.245956 -0.910702
v 1.032444 12.245956 -0.910702
v 1.098641 12.245956 0.000000
v 1.032444 12.245956 0.910702
v -1.032444 12.455440 0.910702
v -1.098641 12.455440 -0.000000
v -1.032444 12.455440 -0.910702
v 1.032444 12.455440 -0.910702
v 1.098641 12.455440 0.000000
v 1.032444 12.455440 0.910702
v -1.981254 0.986172 -1.824155
v 1.977708 0.000000 -2.002738
v -1.977708 0.493086 -1.883855
v -1.977708 0.000000 -2.002738
v 1.981254 0.986172 -1.824155
v 1.977708 0.493086 -1.883855
v 0.819232 0.986172 -1.824155
v -0.819232 0.986172 -1.824155
v 0.819232 4.175859 -1.824155
v -0.819232 4.175859 -1.824155
v -1.977708 0.000000 1.988333
v 1.981279 0.986172 1.811035
v 1.977708 0.493086 1.870305
v -1.981279 0.986172 1.811035
v 1.977708 0.000000 1.988333
v -1.977708 0.493086 1.870305
v 0.819232 0.986172 1.819927
v -0.819232 0.986172 1.819927
v 0.819232 4.175859 1.819927
v -0.819232 4.175859 1.819927
v 0.000000 0.000000 -4.005476
v 0.000000 0.986172 -3.648310
v 0.000000 0.000000 4.005476
v 0.000000 0.986172 3.648310
v 0.000000 0.493086 3.767709
v 0.000000 0.493086 -3.767709
v 0.000000 0.986172 0.000000
v 0.000000 0.000000 0.000000
v 0.000000 0.986172 1.160250
v 0.000000 0.986172 2.489163
v 0.000000 0.986172 -2.539723
v 0.000000 0.986172 -1.108587
v 0.000000 4.175859 1.160250
v 0.000000 4.175859 2.489163
v 0.000000 4.175859 -2.539723
v 0.000000 4.175859 -1.108587
v 0.000000 4.175859 -1.824155
v 0.000000 0.000000 -2.002738
v 0.000000 4.175859 1.820479
v 0.000000 0.000000 1.988333
vn 0.0000 1.0000 0.0000
vn -0.9822 0.0000 -0.1881
vn 0.0000 0.0000 -1.0000
vn 0.9822 0.0000 0.1881
vn 0.0000 0.0000 1.0000
vn 0.0000 -1.0000 0.0000
vn 0.2782 -0.9599 -0.0334
vn -0.2782 -0.9599 0.0334
vn 0.0000 -0.6884 0.7253
vn 0.0000 -0.6884 -0.7253
vn 0.9890 0.0000 -0.1479
vn -0.9890 0.0000 0.1479
vn 0.1162 -0.9932 0.0000
vn 0.7002 -0.6617 0.2680
vn 0.0359 -0.9932 0.1106
vn -0.0941 -0.9932 -0.0683
vn 0.0359 -0.9932 -0.1106
vn 0.9050 -0.3304 0.2680
vn 0.0247 -0.3304 0.9435
vn -0.8897 -0.3304 0.3151
vn -0.5746 -0.3304 -0.7488
vn 0.5346 -0.3304 -0.7779
vn 0.8026 -0.1256 0.5831
vn -0.3066 -0.1256 0.9435
vn -0.9921 -0.1256 0.0000
vn -0.3066 -0.1256 -0.9435
vn 0.8026 -0.1256 -0.5831
vn 0.4089 0.6617 0.6284
vn -0.4713 0.6617 0.5831
vn -0.7002 0.6617 -0.2680
vn 0.0385 0.6617 -0.7488
vn 0.7240 0.6617 -0.1947
vn 0.2680 0.9435 -0.1947
vn 0.4911 0.7947 -0.3568
vn 0.4089 0.6617 -0.6284
vn -0.1024 0.9435 -0.3151
vn -0.1876 0.7947 -0.5773
vn -0.4713 0.6617 -0.5831
vn -0.3313 0.9435 0.0000
vn -0.6071 0.7947 0.0000
vn -0.7002 0.6617 0.2680
vn -0.1024 0.9435 0.3151
vn -0.1876 0.7947 0.5773
vn 0.0385 0.6617 0.7488
vn 0.2680 0.9435 0.1947
vn 0.4911 0.7947 0.3568
vn 0.7240 0.6617 0.1947
vn 0.8897 0.3304 -0.3151
vn 0.7947 0.1876 -0.5773
vn 0.5746 0.3304 -0.7488
vn -0.0247 0.3304 -0.9435
vn -0.3035 0.1876 -0.9342
vn -0.5346 0.3304 -0.7779
vn -0.9050 0.3304 -0.2680
vn -0.9822 0.1876 0.0000
vn -0.9050 0.3304 0.2680
vn -0.5346 0.3304 0.7779
vn -0.3035 0.1876 0.9342
vn -0.0247 0.3304 0.9435
vn 0.5746 0.3304 0.7488
vn 0.7947 0.1876 0.5773
vn 0.8897 0.3304 0.3151
vn 0.3066 0.1256 -0.9435
vn 0.3035 -0.1876 -0.9342
vn 0.0247 -0.3304 -0.9435
vn -0.8026 0.1256 -0.5831
vn -0.7947 -0.1876 -0.5773
vn -0.8897 -0.3304 -0.3151
vn -0.8026 0.1256 0.5831
vn -0.7947 -0.1876 0.5773
vn -0.5746 -0.3304 0.7488
vn 0.3066 0.1256 0.9435
vn 0.3035 -0.1876 0.9342
vn 0.5346 -0.3304 0.7779
vn 0.9921 0.1256 0.0000
vn 0.9822 -0.1876 0.0000
vn 0.9050 -0.3304 -0.2680
vn 0.4713 -0.6617 -0.5831
vn 0.1876 -0.7947 -0.5773
vn -0.0385 -0.6617 -0.7488
vn -0.4089 -0.6617 -0.6284
vn -0.4911 -0.7947 -0.3568
vn -0.7240 -0.6617 -0.1947
vn -0.7240 -0.6617 0.1947
vn -0.4911 -0.7947 0.3568
vn -0.4089 -0.6617 0.6284
vn 0.7002 -0.6617 -0.2680
vn 0.6071 -0.7947 0.0000
vn -0.0941 -0.9932 0.0683
vn -0.0385 -0.6617 0.7488
vn 0.1876 -0.7947 0.5773
vn 0.4713 -0.6617 0.5831
vn 0.3090 0.0000 -0.9511
vn -0.8090 -0.0000 0.5878
vn 0.3090 0.0000 0.9511
vn -0.8090 -0.0000 -0.5878
vn 1.0000 0.0000 0.0000
vn -0.9890 0.0000 -0.1479
vn -0.9974 0.0000 -0.0725
vn -0.9974 0.0000 0.0725
vn 0.9890 0.0000 0.1479
vn 0.9974 0.0000 0.0725
vn 0.9974 0.0000 -0.0725
vn -0.2782 -0.9599 -0.0334
vn -0.2556 -0.9667 -0.0147
vn -0.2556 -0.9667 0.0147
vn 0.2782 -0.9599 0.0334
vn 0.2556 -0.9667 0.0147
vn 0.2556 -0.9667 -0.0147
vn 0.9822 0.0000 -0.1881
vn 0.9886 0.0000 -0.1504
vn 0.9886 0.0000 0.1504
vn -0.9822 0.0000 0.1881
vn -0.9886 0.0000 0.1504
vn -0.9886 0.0000 -0.1504
vn -1.0000 -0.0034 -0.0010
vn 0.0000 0.2353 -0.9719
vn 1.0000 -0.0034 0.0010
vn 0.0000 0.2353 0.9719
vn 0.0000 0.4343 0.9007
vn 0.0000 0.4343 -0.9007
vn -1.0000 -0.0000 0.0000
vn 0.9999 -0.0107 -0.0010
vn -0.9999 -0.0108 0.0010
vn 1.0000 -0.0034 -0.0010
vn -0.9999 -0.0107 -0.0010
vn -1.0000 -0.0034 0.0010
vn 0.9999 -0.0108 0.0010
vn -0.9379 0.0000 0.3469
vn 0.9370 0.0000 -0.3495
vn -0.3086 0.0000 -0.9512
vn -0.9388 0.0000 0.3444
vn 0.3086 0.0000 0.9512
vn -0.2356 0.0000 -0.9718
vn 0.9379 0.0000 -0.3469
vn 0.2372 0.0000 0.9715
vn 0.9932 0.0387 -0.1100
vn -0.9932 0.0387 0.1100
vn -0.9932 0.0387 -0.1100
vn -0.9977 0.0425 -0.0520
vn -0.9977 0.0425 0.0520
vn 0.9932 0.0387 0.1100
vn 0.9977 0.0425 0.0520
vn 0.9977 0.0425 -0.0520
vn 0.9379 0.0000 0.3469
vn -0.9379 0.0000 -0.3469
vn -0.9370 0.0000 -0.3495
vn 0.9388 0.0000 0.3444
vn -0.2372 0.0000 0.9715
vn 0.2356 0.0000 -0.9718
vn -0.3086 0.0000 0.9512
vn 0.3086 0.0000 -0.9512
usemtl FFEB3B
s off
f 184//1 165//1 30//1 179//1
f 182//1 155//1 34//1 181//1
f 110//2 115//2 38//2 37//2
f 37//3 38//3 42//3 41//3
f 116//4 121//4 40//4 39//4
f 39//5 40//5 36//5 35//5
f 112//6 116//6 39//6 35//6
f 113//1 36//1 43//1 122//1
f 36//1 40//1 46//1 43//1
f 42//1 38//1 44//1 45//1
f 119//1 42//1 45//1 125//1
f 131//7 49//7 53//7 137//7
f 51//5 54//5 58//5 55//5
f 128//8 47//8 51//8 134//8
f 47//9 50//9 54//9 51//9
f 49//10 48//10 52//10 53//10
f 145//1 140//1 55//1 58//1
f 53//3 52//3 56//3 57//3
f 137//11 53//11 57//11 143//11
f 134//12 51//12 55//12 140//12
f 75//13 72//13 104//13 105//13
f 60//14 72//14 74//14
f 72//15 71//15 101//15 104//15
f 76//16 78//16 103//16 102//16
f 78//17 75//17 105//17 103//17
f 60//18 74//18 81//18
f 61//19 73//19 83//19
f 62//20 77//20 85//20
f 63//21 79//21 87//21
f 64//22 80//22 89//22
f 60//23 81//23 84//23
f 61//24 83//24 86//24
f 62//25 85//25 88//25
f 63//26 87//26 90//26
f 64//27 89//27 82//27
f 65//28 91//28 96//28
f 66//29 92//29 98//29
f 67//30 93//30 99//30
f 68//31 94//31 100//31
f 69//32 95//32 97//32
f 97//33 100//33 70//33
f 97//34 95//34 100//34
f 95//35 68//35 100//35
f 100//36 99//36 70//36
f 100//37 94//37 99//37
f 94//38 67//38 99//38
f 99//39 98//39 70//39
f 99//40 93//40 98//40
f 93//41 66//41 98//41
f 98//42 96//42 70//42
f 98//43 92//43 96//43
f 92//44 65//44 96//44
f 96//45 97//45 70//45
f 96//46 91//46 97//46
f 91//47 69//47 97//47
f 82//48 95//48 69//48
f 82//49 89//49 95//49
f 89//50 68//50 95//50
f 90//51 94//51 68//51
f 90//52 87//52 94//52
f 87//53 67//53 94//53
f 88//54 93//54 67//54
f 88//55 85//55 93//55
f 85//56 66//56 93//56
f 86//57 92//57 66//57
f 86//58 83//58 92//58
f 83//59 65//59 92//59
f 84//60 91//60 65//60
f 84//61 81//61 91//61
f 81//62 69//62 91//62
f 89//63 90//63 68//63
f 89//64 80//64 90//64
f 80//65 63//65 90//65
f 87//66 88//66 67//66
f 87//67 79//67 88//67
f 79//68 62//68 88//68
f 85//69 86//69 66//69
f 85//70 77//70 86//70
f 77//71 61//71 86//71
f 83//72 84//72 65//72
f 83//73 73//73 84//73
f 73//74 60//74 84//74
f 81//75 82//75 69//75
f 81//76 74//76 82//76
f 74//77 64//77 82//77
f 75//78 80//78 64//78
f 75//79 78//79 80//79
f 78//80 63//80 80//80
f 78//81 79//81 63//81
f 78//82 76//82 79//82
f 76//83 62//83 79//83
f 76//84 77//84 62//84
f 76//85 71//85 77//85
f 71//86 61//86 77//86
f 74//87 75//87 64//87
f 74//88 72//88 75//88
f 71//89 76//89 102//89 101//89
f 71//90 73//90 61//90
f 71//91 72//91 73//91
f 72//92 60//92 73//92
f 103//93 105//93 109//93 107//93
f 101//94 102//94 106//94 59//94
f 104//95 101//95 59//95 108//95
f 102//96 103//96 107//96 106//96
f 105//97 104//97 108//97 109//97
f 52//98 136//98 142//98 56//98
f 136//99 135//99 141//99 142//99
f 135//100 134//100 140//100 141//100
f 54//101 139//101 145//101 58//101
f 139//102 138//102 144//102 145//102
f 138//103 137//103 143//103 144//103
f 57//1 56//1 142//1 143//1
f 143//1 142//1 141//1 144//1
f 144//1 141//1 140//1 145//1
f 48//104 130//104 136//104 52//104
f 130//105 129//105 135//105 136//105
f 129//106 128//106 134//106 135//106
f 50//107 133//107 139//107 54//107
f 133//108 132//108 138//108 139//108
f 132//109 131//109 137//109 138//109
f 40//1 121//1 127//1 46//1
f 121//1 120//1 126//1 127//1
f 120//1 119//1 125//1 126//1
f 38//1 115//1 124//1 44//1
f 115//1 114//1 123//1 124//1
f 114//1 113//1 122//1 123//1
f 37//6 41//6 118//6 110//6
f 110//6 118//6 117//6 111//6
f 111//6 117//6 116//6 112//6
f 41//110 42//110 119//110 118//110
f 118//111 119//111 120//111 117//111
f 117//112 120//112 121//112 116//112
f 35//113 36//113 113//113 112//113
f 112//114 113//114 114//114 111//114
f 111//115 114//115 115//115 110//115
f 180//1 31//1 155//1 182//1
f 178//1 27//1 165//1 184//1
f 28//1 178//1 184//1 164//1
f 32//1 180//1 182//1 154//1
f 154//1 182//1 181//1 33//1
f 164//1 184//1 179//1 29//1
usemtl 1A1A1A
f 148//116 146//116 4//116 10//116
f 171//117 167//117 8//117 11//117
f 158//118 157//118 6//118 12//118
f 170//119 169//119 2//119 9//119
f 185//6 160//6 5//6 168//6
f 168//120 170//120 9//120 1//120
f 160//97 158//97 12//97 5//97
f 166//121 171//121 11//121 7//121
f 149//122 148//122 10//122 3//122
f 156//122 161//122 18//122 13//122
f 147//97 151//97 17//97 15//97
f 183//6 147//6 15//6 173//6
f 151//123 150//123 16//123 17//123
f 161//124 159//124 14//124 18//124
f 172//1 14//1 20//1 174//1
f 159//1 2//1 21//1 163//1
f 169//1 6//1 22//1 175//1
f 157//1 16//1 19//1 162//1
f 167//1 4//1 24//1 176//1
f 146//1 14//1 25//1 153//1
f 172//1 16//1 26//1 177//1
f 150//1 8//1 23//1 152//1
f 16//1 150//1 152//1 26//1
f 4//1 146//1 153//1 24//1
f 11//125 8//125 150//125 151//125
f 166//6 7//6 147//6 183//6
f 7//97 11//97 151//97 147//97
f 13//122 18//122 148//122 149//122
f 18//126 14//126 146//126 148//126
f 6//1 157//1 162//1 22//1
f 14//1 159//1 163//1 20//1
f 9//127 2//127 159//127 161//127
f 1//122 9//122 161//122 156//122
f 15//97 17//97 158//97 160//97
f 173//6 15//6 160//6 185//6
f 17//128 16//128 157//128 158//128
f 13//6 173//6 185//6 156//6
f 3//6 166//6 183//6 149//6
f 14//1 172//1 177//1 25//1
f 8//1 167//1 176//1 23//1
f 2//1 169//1 175//1 21//1
f 16//1 172//1 174//1 19//1
f 149//6 183//6 173//6 13//6
f 3//121 10//121 171//121 166//121
f 5//120 12//120 170//120 168//120
f 156//6 185//6 168//6 1//6
f 12//119 6//119 169//119 170//119
f 10//117 4//117 167//117 171//117
usemtl F44336
f 153//129 25//129 34//129 155//129
f 162//130 19//130 28//130 164//130
f 176//131 24//131 31//131 180//131
f 163//132 21//132 30//132 165//132
f 177//133 26//133 33//133 181//133
f 174//134 20//134 27//134 178//134
f 152//135 23//135 32//135 154//135
f 175//136 22//136 29//136 179//136
f 45//3 44//3 48//3 49//3
f 125//137 45//137 49//137 131//137
f 122//138 43//138 47//138 128//138
f 43//5 46//5 50//5 47//5
f 44//139 124//139 130//139 48//139
f 124//140 123//140 129//140 130//140
f 123//141 122//141 128//141 129//141
f 46//142 127//142 133//142 50//142
f 127//143 126//143 132//143 133//143
f 126//144 125//144 131//144 132//144
f 26//145 152//145 154//145 33//145
f 24//146 153//146 155//146 31//146
f 20//147 163//147 165//147 27//147
f 22//148 162//148 164//148 29//148
f 21//149 175//149 179//149 30//149
f 19//150 174//150 178//150 28//150
f 25//151 177//151 181//151 34//151
f 23//152 176//152 180//152 32//152
